<svg xmlns="http://www.w3.org/2000/svg" width="1280" height="640" viewBox="0 0 1280 640">
  <defs>
    <linearGradient id="bg" x1="0" y1="0" x2="1" y2="1">
      <stop offset="0%" stop-color="#0a0f1e"/>
      <stop offset="100%" stop-color="#0d1a14"/>
    </linearGradient>
    <linearGradient id="accent" x1="0" y1="0" x2="1" y2="0">
      <stop offset="0%" stop-color="#22c55e"/>
      <stop offset="100%" stop-color="#16a34a"/>
    </linearGradient>
    <linearGradient id="badge" x1="0" y1="0" x2="1" y2="0">
      <stop offset="0%" stop-color="#22c55e" stop-opacity="0.15"/>
      <stop offset="100%" stop-color="#22c55e" stop-opacity="0.05"/>
    </linearGradient>
    <filter id="glow">
      <feGaussianBlur stdDeviation="3" result="blur"/>
      <feMerge><feMergeNode in="blur"/><feMergeNode in="SourceGraphic"/></feMerge>
    </filter>
  </defs>
  <rect width="1280" height="640" fill="url(#bg)"/>
  <line x1="0" y1="213" x2="1280" y2="213" stroke="#ffffff" stroke-opacity="0.03" stroke-width="1"/>
  <line x1="0" y1="426" x2="1280" y2="426" stroke="#ffffff" stroke-opacity="0.03" stroke-width="1"/>
  <line x1="427" y1="0" x2="427" y2="640" stroke="#ffffff" stroke-opacity="0.03" stroke-width="1"/>
  <line x1="854" y1="0" x2="854" y2="640" stroke="#ffffff" stroke-opacity="0.03" stroke-width="1"/>
  <ellipse cx="950" cy="320" rx="320" ry="280" fill="#22c55e" fill-opacity="0.06"/>
  <ellipse cx="200" cy="120" rx="180" ry="160" fill="#22c55e" fill-opacity="0.04"/>
  <circle cx="128" cy="180" r="48" fill="none" stroke="url(#accent)" stroke-width="3" filter="url(#glow)"/>
  <line x1="163" y1="215" x2="188" y2="240" stroke="url(#accent)" stroke-width="4" stroke-linecap="round" filter="url(#glow)"/>
  <text x="108" y="187" fill="#22c55e" font-family="monospace" font-size="20" font-weight="700" filter="url(#glow)">&lt;/&gt;</text>
  <text x="200" y="198" fill="#f1f5f9" font-family="Inter, -apple-system, sans-serif" font-size="22" font-weight="500" letter-spacing="3" opacity="0.6">SAMOTECH</text>
  <text x="88" y="310" fill="#ffffff" font-family="Inter, -apple-system, sans-serif" font-size="100" font-weight="800" letter-spacing="-3">DevLens</text>
  <rect x="88" y="330" width="180" height="4" rx="2" fill="url(#accent)"/>
  <text x="88" y="390" fill="#94a3b8" font-family="Inter, -apple-system, sans-serif" font-size="26" font-weight="400">Repo health scoring in 9 dimensions</text>
  <text x="88" y="428" fill="#64748b" font-family="Inter, -apple-system, sans-serif" font-size="20" font-weight="400">+ Real cybersecurity vulnerability scanning · Free forever</text>
  <rect x="88" y="480" width="180" height="48" rx="24" fill="url(#badge)" stroke="#22c55e" stroke-opacity="0.3" stroke-width="1"/>
  <circle cx="124" cy="504" r="8" fill="#22c55e"/>
  <text x="146" y="510" fill="#22c55e" font-family="Inter, -apple-system, sans-serif" font-size="18" font-weight="600">97 / 100</text>
  <text x="820" y="160" fill="#64748b" font-family="monospace" font-size="14" font-weight="500" letter-spacing="2">HEALTH SCORE</text>
  <rect x="820" y="185" width="350" height="8" rx="4" fill="#1e293b"/>
  <rect x="820" y="185" width="340" height="8" rx="4" fill="#22c55e" opacity="0.8"/>
  <text x="820" y="175" fill="#94a3b8" font-family="Inter, sans-serif" font-size="13">README Quality</text>
  <rect x="820" y="225" width="350" height="8" rx="4" fill="#1e293b"/>
  <rect x="820" y="225" width="350" height="8" rx="4" fill="#22c55e" opacity="0.8"/>
  <text x="820" y="215" fill="#94a3b8" font-family="Inter, sans-serif" font-size="13">Commit Activity</text>
  <rect x="820" y="265" width="350" height="8" rx="4" fill="#1e293b"/>
  <rect x="820" y="265" width="340" height="8" rx="4" fill="#22c55e" opacity="0.8"/>
  <text x="820" y="255" fill="#94a3b8" font-family="Inter, sans-serif" font-size="13">Repo Freshness</text>
  <rect x="820" y="305" width="350" height="8" rx="4" fill="#1e293b"/>
  <rect x="820" y="305" width="320" height="8" rx="4" fill="#22c55e" opacity="0.7"/>
  <text x="820" y="295" fill="#94a3b8" font-family="Inter, sans-serif" font-size="13">Documentation</text>
  <rect x="820" y="345" width="350" height="8" rx="4" fill="#1e293b"/>
  <rect x="820" y="345" width="350" height="8" rx="4" fill="#22c55e" opacity="0.8"/>
  <text x="820" y="335" fill="#94a3b8" font-family="Inter, sans-serif" font-size="13">CI/CD Setup</text>
  <rect x="820" y="385" width="350" height="8" rx="4" fill="#1e293b"/>
  <rect x="820" y="385" width="350" height="8" rx="4" fill="#22c55e" opacity="0.8"/>
  <text x="820" y="375" fill="#94a3b8" font-family="Inter, sans-serif" font-size="13">Security</text>
  <text x="820" y="450" fill="#22c55e" font-family="monospace" font-size="16" opacity="0.7">devlens-io.vercel.app</text>
</svg>